<svg id="Layer_1" data-name="Layer 1" xmlns="http://www.w3.org/2000/svg" viewBox="0 0 676.44 320.8"><defs><style>.cls-1{fill:#231f20;}</style></defs><path class="cls-1" d="M226.62,300.67a19.2,19.2,0,0,0-9.08,10.46,25.23,25.23,0,0,0-.78,14.32c2.86,11.12,11.8,19,21.9,23.78,5.33,2.51,11,4.1,16.54,6.12l-3.13-1.16a37.59,37.59,0,0,1,6.45,3l-2.82-1.78a21.78,21.78,0,0,1,3.56,2.79L257,356a18.44,18.44,0,0,1,2.15,2.6l-1.6-2.48a14.45,14.45,0,0,1,1.48,3l-.88-2.63a13.24,13.24,0,0,1,.63,3.4l-.1-2.64a14.68,14.68,0,0,1-.54,4.22l.74-2.51a22.07,22.07,0,0,1-3.29,6.42l1.54-2.13a50.07,50.07,0,0,1-11.21,10.48l2.16-1.53a67.32,67.32,0,0,1-16.76,8.61l2.62-.9a40.13,40.13,0,0,1-9.09,2.23l2.94-.25a15.84,15.84,0,0,1-2.84-.07l3.12.44a13.72,13.72,0,0,1-2.37-.6l3.13,1.16a16,16,0,0,1-2.56-1.26l2.82,1.79a18.15,18.15,0,0,1-2.8-2.21l2.24,2.2a19,19,0,0,1-2.43-3l1.6,2.49a19.16,19.16,0,0,1-1.84-3.85l.89,2.63a18.66,18.66,0,0,1-.87-4.56l.11,2.64a17.43,17.43,0,0,1,.61-5.28l-.74,2.52a18.43,18.43,0,0,1,2.62-5.43L227,373.61a17.81,17.81,0,0,1,4-4c2-1.45,2.58-5.08,2.19-7.29a12.76,12.76,0,0,0-4.73-7.31,15.45,15.45,0,0,0-9.07-3.37l-2.94.24a9.66,9.66,0,0,0-4.79,2.43c-4.7,3.37-7.46,8.6-8.92,14.06s-.45,11.43,1.79,16.56a30.6,30.6,0,0,0,14.62,14.86,26.8,26.8,0,0,0,12.11,2.77,39.09,39.09,0,0,0,9.91-1.67,78.34,78.34,0,0,0,28-14.82,45.31,45.31,0,0,0,10.28-11.71c2.84-4.79,4.24-11.17,2.65-16.62a26.41,26.41,0,0,0-5.5-10.39,38.33,38.33,0,0,0-9.73-7.79c-5.5-3.26-11.87-4.75-17.83-6.95l3.14,1.16a52.16,52.16,0,0,1-9.09-4.31l2.82,1.78a30.77,30.77,0,0,1-4.81-3.7l2.25,2.2a24.21,24.21,0,0,1-3.15-3.78l1.6,2.48a17.24,17.24,0,0,1-1.79-3.69l.89,2.64a18.53,18.53,0,0,1-.91-5l.1,2.64a17,17,0,0,1,.65-5.25l-.75,2.52a13.8,13.8,0,0,1,1.84-3.78l-1.55,2.13a11.5,11.5,0,0,1,2.54-2.53l-2.15,1.53a12.32,12.32,0,0,1,1.05-.65,8.34,8.34,0,0,0,4.44-6.17,10.75,10.75,0,0,0-2.58-7.75A15.53,15.53,0,0,0,235.3,300c-2.83-.6-6.06-.75-8.68.71Z" transform="translate(-91.98 -187.33)"/><path class="cls-1" d="M319.35,321.78l-.09-4.06A19.71,19.71,0,0,0,316,307.56a15.36,15.36,0,0,0-2.89-3.73,11.93,11.93,0,0,0-4.26-2.82,22.14,22.14,0,0,0-8.87-.52,24.49,24.49,0,0,0-8.11,2.79,23.13,23.13,0,0,0-10.63,13.47c-3.32,11.5,2.72,23.75,12,30.58a50.94,50.94,0,0,0,9.41,5,78,78,0,0,0,9,3.43c6.87,2.15,14.27,2.81,20.76,6.09l-2.14-1.08a23.41,23.41,0,0,1,3.71,2.42l-2.12-1.73a21.65,21.65,0,0,1,2.39,2.3l-2-2.32a19,19,0,0,1,1.51,2L332,360.7a15.78,15.78,0,0,1,1,1.91l-1.34-3.05a16.72,16.72,0,0,1,.59,1.68l-.79-3a13.83,13.83,0,0,1,.37,2.12l-.24-2.73a14.6,14.6,0,0,1,0,2.29l.31-2.37a15.06,15.06,0,0,1-1.13,4l.85-1.87a29.34,29.34,0,0,1-7.41,9.24l1.39-1.24c-5.23,4.63-11,9-17.9,10.84l1.81-.45a23.39,23.39,0,0,1-9.31.49l2,.35a18.38,18.38,0,0,1-5-1.59l2.13,1.08a16.37,16.37,0,0,1-2.78-1.81l2.13,1.74a16.06,16.06,0,0,1-1.75-1.75l2,2.32a16.29,16.29,0,0,1-1.25-1.71l1.76,2.83a20.81,20.81,0,0,1-1-1.87l1.34,3.06a15.52,15.52,0,0,1-.7-2l.79,3a14.35,14.35,0,0,1-.38-2l.24,2.73a12.56,12.56,0,0,1,.05-2.74l-.31,2.37a12.54,12.54,0,0,1,.49-2c.8-2.41.07-5.81-.72-8.08a21,21,0,0,0-5.11-8.19c-1.61-1.47-3.93-3.45-6.29-3.17a4.61,4.61,0,0,0-4.06,3.57c-2.25,6.75-.19,14.41,2.89,20.53A31.5,31.5,0,0,0,302,400c9.34,4.12,20.16,1,28.18-4.53a72.46,72.46,0,0,0,11.27-9.55c3.19-3.35,5.93-7.66,6.61-12.3A28.56,28.56,0,0,0,347,360.79a34.61,34.61,0,0,0-5.35-10.34,36.19,36.19,0,0,0-14.93-11.69c-5-2.15-10.45-2.92-15.68-4.31a79.86,79.86,0,0,1-15.67-6l2.14,1.08a28.23,28.23,0,0,1-4.57-2.82l2.13,1.73a15.07,15.07,0,0,1-1.64-1.56l2,2.32a14.85,14.85,0,0,1-.9-1.19l1.77,2.82a12.13,12.13,0,0,1-.73-1.38l1.34,3c-.16-.4-.29-.79-.41-1.2l.79,3a13.94,13.94,0,0,1-.3-1.67l.24,2.73a15.06,15.06,0,0,1,.09-3l-.3,2.38a17.18,17.18,0,0,1,1.28-4.32l-.85,1.88a18.53,18.53,0,0,1,4.4-5.87l-1.39,1.24a20,20,0,0,1,8.29-4.36l-1.82.45a18,18,0,0,1,7-.28l-2-.35,1,.2-10.4-16.71.09,4.07a19.69,19.69,0,0,0,2.37,8.74c1.29,2.44,3.45,5.43,5.9,6.88,1.66,1,4.09,2.19,6,1a6.15,6.15,0,0,0,2.56-5.49Z" transform="translate(-91.98 -187.33)"/><path class="cls-1" d="M360.86,221.65c1.19,23.21.09,46.45-.77,69.66s-1.5,46.23.72,69.24a223.93,223.93,0,0,0,6.89,38.19l24.82,3.06c-3.84-9.21-4.7-19.23-4.61-29.12,0-5,.27-9.95.63-14.91a73.2,73.2,0,0,1,2.31-14.64,35.38,35.38,0,0,1,6.73-13.19l-.53.63a25.78,25.78,0,0,1,10.65-7.64l-1.33.47a21.11,21.11,0,0,1,2.8-.77c1.94-.38-1.52.1-.2,0,2.21-.14-2.22,0-.48,0-2.26-.1-2.81-.12-1.67-.05-2.57-.27-3.23-.32-2-.17-2.56-.41-3.21-.5-2-.28-2.2-.48-2.74-.6-1.63-.33s.58.13-1.17-.36l.86.27c.55.18,1.13.49,1.69.61-1.17-.48-1.38-.57-.62-.25l.83.37c.55.25,1.1.5,1.64.77,1.08.53,2.14,1.1,3.2,1.68,1.8,1,3.57,2.07,5.29,3.2l-1.17-.77c6.7,4.42,12.85,10,16.44,17.26l-.36-.74c5.59,11.74,2.34,25.35-5.74,35.08l.53-.63a40.79,40.79,0,0,1-17.79,11.93l1.32-.46a51.7,51.7,0,0,1-6.83,1.83c-.6.12-1.2.23-1.8.32-.11,0-.73.19-.8.12s1.93-.24.79-.12-2.44.26-3.66.33c-.27,0-.55,0-.82.05.05,0,2.63-.07,1.34-.06l-1.85,0h-.81c-.89,0-2.41-.16,1.56.06l-1.64-.09-1-.08c-1.38-.1,3.46.36,2.09.2-.61-.07-1.22-.13-1.83-.21l-.81-.12c-.19,0,3.65.59,2.08.32l-2-.36a50.59,50.59,0,0,0-9.59-.92c-1.27,0-4.68-.12-5.89.84s.11,1.68,1,2.13a27.85,27.85,0,0,0,7.26,2.1c11.71,2.24,23.91,2.93,35.71,1A48.78,48.78,0,0,0,440.88,388c11-8.61,17.86-24,13.17-37.73-2.47-7.2-7.4-13.13-13.29-17.82-6.77-5.38-14.81-10.11-23.13-12.57-9.2-2.72-19.31-4.15-28.85-2.6a25.1,25.1,0,0,0-10.61,4.43c-6.37,4.62-10.39,11.73-12.37,19.24-2.2,8.4-2.44,17.33-2.65,26s.11,17.36,2.43,25.7a52.83,52.83,0,0,0,2.12,6.13c.56,1.34,2.13,1.82,3.41,2.27a52.08,52.08,0,0,0,17.55,2.16c.57-.06,4.14-.33,3.86-1.37-6.15-22.19-8.15-45.22-8.38-68.17-.24-23.24,1.23-46.44,1.82-69.65.33-13.09.38-26.2-.29-39.28-.06-1.23-2.73-2-3.41-2.27a51.73,51.73,0,0,0-17.55-2.15c-.73.08-3.91.2-3.85,1.37Z" transform="translate(-91.98 -187.33)"/><path class="cls-1" d="M517.24,331.7a10.66,10.66,0,0,0-4.5-3.17c-3.33-1.46-7.24-1.95-10.83-2.35-5.58-.63-11.44-1-17,0a19.76,19.76,0,0,0-5.91,2c-5.71,3.06-10.19,8.79-12.87,14.6-5.33,11.53-4.82,25.42,0,37,2.57,6.16,6.53,12.06,11.95,16.06a31.21,31.21,0,0,0,10.28,4.8,64.15,64.15,0,0,0,10.19,1.89,86.35,86.35,0,0,0,13.25.62c4.67-.19,9.5-.64,13.76-2.74a20,20,0,0,0,7.51-6.74,34.9,34.9,0,0,0,4.31-9.63,67,67,0,0,0,2.42-11.47c1.64-14.14-2.5-29.53-14.41-38.29a29.69,29.69,0,0,0-4.17-2.56,19.67,19.67,0,0,0-5.64-1.59,67.2,67.2,0,0,0-9.59-.9,29.09,29.09,0,0,0-7.52.36c-.39.1-2.78.7-1.37,1.42a31.78,31.78,0,0,1,11,9.48l-.4-.56c9.3,12.77,9,29.8,4.09,44.24a27.92,27.92,0,0,1-6.11,10.64l.48-.49a17.85,17.85,0,0,1-3.66,2.8,19.88,19.88,0,0,1-1.91.94c-.33.14-.66.27-1,.39-.18.06-1.34.33-.54.19s-.41.08-.57.12c-.41.09-.82.15-1.23.23-1.29.23,1.93-.22.54-.08s2.69-.08,1.1,0,3.28.07,1.54,0l2.6.13q-1.85-.14,2.21.21l2.24.32q-.36,0-.72-.12c.43,0,2.77.54,1.07.19-1.4-.29,1.87.6.51.16l-1.05-.35-1-.39-.5-.22q-.54-.22.39.18a9.63,9.63,0,0,0-1.93-1c-.66-.39-1.29-.82-1.91-1.27a31.86,31.86,0,0,1-6.7-6.72l.41.56c-9.2-12.52-11.59-30.6-5.46-44.94a34.78,34.78,0,0,1,7.12-10.69l-.49.49a28.42,28.42,0,0,1,3.79-3.22c1.22-.85,3-2.14,4.56-2.32-1.2.14.05,0,.29,0,1.53-.36-1.91.21-.5.06a38.11,38.11,0,0,1-8.54-.3,28.83,28.83,0,0,1-5.87-.73c1.35.31-1.77-.59-.56-.13,1,.38-.78-.53.07,0,.29.19.6.36.89.56a8.69,8.69,0,0,1,1.75,1.73,7.56,7.56,0,0,0,2.19.83,22.46,22.46,0,0,0,3.46.76,66.93,66.93,0,0,0,9.59.9,29.09,29.09,0,0,0,7.52-.36l1.29-.38c.62-.3.64-.65.07-1Z" transform="translate(-91.98 -187.33)"/><path class="cls-1" d="M601.29,335.73a11.86,11.86,0,0,0-4.56-3c-3.42-1.49-7.43-2-11.1-2.46-7.52-.84-16-1.49-23.2,1.38-6.2,2.46-11.48,7.8-14.81,13.48-6.36,10.87-6.32,24.62-1.41,36A38.88,38.88,0,0,0,558.43,397a34.68,34.68,0,0,0,10.72,5.27A78.68,78.68,0,0,0,596.38,405a28.45,28.45,0,0,0,12.71-3.6,23.52,23.52,0,0,0,7.83-7.79,40,40,0,0,0,5.57-20.77c.08-12.88-3.87-27.58-15.22-35a33.88,33.88,0,0,0-4.3-2.36,21.91,21.91,0,0,0-5.64-1.59,65.78,65.78,0,0,0-9.6-.89,29.48,29.48,0,0,0-7.51.35c-.36.09-2.83.75-1.37,1.42a29.56,29.56,0,0,1,11.49,9.14l-.41-.56c4,5.47,5.94,12.14,7,18.75,1.19,7.77.93,15.85-1.83,23.26a29.31,29.31,0,0,1-6.26,10.52l.48-.49a23,23,0,0,1-8.67,5.26c-.36.12-.26.09.32-.09l-.58.14c-.46.11-.92.19-1.38.28-1.35.25,1.85-.21.39-.06s2.61-.07.95-.06a57.91,57.91,0,0,1,7.2.39c-1.72-.2,3.14.53,1.34.19l1.69.33-.81-.18c-1.37-.3,1.73.56.29.08-.82-.28-1.62-.57-2.42-.9-1.34-.55.91.48-.39-.18-.39-.2-.77-.39-1.15-.6a32.51,32.51,0,0,1-4-2.58,35.24,35.24,0,0,1-6.68-6.85l.41.55c-8.46-11.55-10.88-27.69-4.95-40.89a34.35,34.35,0,0,1,6.82-9.95l-.48.49a27.29,27.29,0,0,1,10-6.63l.59-.19c-.62.18-.65.2-.08.05s2.61-.36,0-.09c1-.08.49-.06-1.43.05a59.11,59.11,0,0,1-7.75-.42,36.11,36.11,0,0,1-4-.67c.56.14.48.11-.25-.08-1.59-.45.33,0,.43.2-.67-.33-.76-.36-.25-.11.21.11.41.23.61.36a9,9,0,0,1,2.08,1.8,7.56,7.56,0,0,0,2.19.83,21.35,21.35,0,0,0,3.46.76,65.52,65.52,0,0,0,9.59.9,29.09,29.09,0,0,0,7.52-.36l1.29-.38c.62-.3.64-.65.07-1Z" transform="translate(-91.98 -187.33)"/><path class="cls-1" d="M698.39,255.33c-.28-2.7,0-.22,0,.44s0,1.39,0,2.08A35.46,35.46,0,0,1,698,262l.24-1.52c-2.26,14-11.6,25.76-20.33,36.44l.69-.84a310.15,310.15,0,0,1-34.43,35.75l10.23,12.59a25.72,25.72,0,0,1,1.22,4.1c-.23-1.19,0,1.87.07,1,0-.49,0-1,.1-1.46l-.23,1.52a9.89,9.89,0,0,1,2.11-4.47l-.69.84a10.37,10.37,0,0,1,7.59-3.57l-1.08,0a16.18,16.18,0,0,1,7.75,1.95l-1.36-.74a21.06,21.06,0,0,1,2.42,1.54c.4.29.79.6,1.17.92a4.12,4.12,0,0,1,.48.42c0-.1-1.6-1.53-.45-.4.66.65,1.29,1.33,1.9,2,0,0,.53.66.55.66s-1.72-2.15-.83-1c.36.45.71.9,1.06,1.36,2.73,3.59,5.34,7.28,8,10.92,5.34,7.31,10.58,14.71,16.05,21.92,5.61,7.4,12.09,15,21,18.29a38.27,38.27,0,0,0,12.33,2.08A109.18,109.18,0,0,0,746,402c7.84-.65,16.08-2.64,21.53-8.72,1.16-1.29,1-2.77.73-4.45a29.48,29.48,0,0,0-3-8.4,29.13,29.13,0,0,0-4.89-7.44c-.59-.59-3-3.18-4-2.11-6.39,7.12-16.43,8.6-25.51,9l1.09,0c-7.68.26-15.77.25-22.74-3.42l1.36.73a28.41,28.41,0,0,1-4-2.61c-.53-.4-1-.84-1.54-1.27-1.19-1,1.48,1.44.37.34-.39-.37-.77-.74-1.14-1.13-1-1.06-2-2.17-3-3.31-1.11-1.32,1.69,2.11.62.75l-.76-1c-.49-.64-1-1.29-1.47-1.94-4.48-6-8.84-12.08-13.26-18.12-4.72-6.47-9.2-13.25-14.53-19.24C667,324,660.14,319,652.25,320a11,11,0,0,0-7.89,5.4c-3.1,4.9-1.23,11.26.63,16.21a33.93,33.93,0,0,0,5.43,9.47,11.81,11.81,0,0,0,2.37,2.42,2.5,2.5,0,0,0,2.43.7,308.66,308.66,0,0,0,28.85-29.13c4.56-5.26,9-10.65,13.17-16.24a86.39,86.39,0,0,0,10-16.5,43.91,43.91,0,0,0,3.66-23.5c-.27-2.74-1.75-6-2.94-8.4a29.25,29.25,0,0,0-4.9-7.44c-.75-.75-2.73-3-4-2.11s-.86,3.13-.73,4.44Z" transform="translate(-91.98 -187.33)"/><path class="cls-1" d="M648,392.06a705.36,705.36,0,0,0,12.18-78,685.74,685.74,0,0,0,3.22-77.44q-.32-21.81-2-43.57c-.41-5.2-8.26-3.05-11.16-1.74a24.27,24.27,0,0,0-8,5.4c-1.39,1.53-3.36,3.68-3.18,5.91a690.2,690.2,0,0,1,1.75,75.56,690.17,690.17,0,0,1-6.53,75.29q-3,21.11-7.32,42l.38-1.84-.9,4.27c-.38,1.8-.64,3.39,1.19,4.51s4.92.6,6.72.08a24.57,24.57,0,0,0,8.59-4.39l2.28-2a12.55,12.55,0,0,0,2.8-4.07Z" transform="translate(-91.98 -187.33)"/><path class="cls-1" d="M122.88,396.69a593.68,593.68,0,0,0,29.88-78,588.28,588.28,0,0,0,18.51-80.35q3.61-23,5.4-46.23c.11-1.37-3.47-1.92-4-2a30.87,30.87,0,0,0-8.9.2,29.62,29.62,0,0,0-8.6,2.27c-1.28.63-3.15,1.38-3.28,3Q150,220.93,145.85,246t-10.38,49.61q-3.54,13.86-7.73,27.52l.31-1a588.8,588.8,0,0,1-21.94,59.68q-3.56,8.25-7.37,16.4c-1.74,3.73,7.61,3.27,9.26,3.15a38.15,38.15,0,0,0,9.49-1.71l2.43-.9a7.56,7.56,0,0,0,3-2Z" transform="translate(-91.98 -187.33)"/><path class="cls-1" d="M159.11,202.14a57.48,57.48,0,0,1,4.64,11.38l-.49-1.69c3.34,11.65,4.35,24.1,5,36.17a264.09,264.09,0,0,1-.69,38.05c-.65,7.17-1.59,14.3-2.68,21.41l.3-2c-5.49,35.57-15,71.07-13.19,107.34a145.18,145.18,0,0,0,3.55,26.08,97.5,97.5,0,0,0,8.63,24c6.89,12.84,18.06,23,30.73,30,14.21,7.85,30.25,12.36,46.19,15a15.14,15.14,0,0,0,7.93-1.28,22.32,22.32,0,0,0,8-5.48c1.37-1.6,3.32-3.95,3-6.23a4.06,4.06,0,0,0-3.61-3.6A163.84,163.84,0,0,1,228,484.22l1.87.67c-12.44-4.5-24.27-10.93-33.75-20.27l1.26,1.24c-9.07-9.05-14.89-20.34-18.43-32.57l.48,1.7c-5.89-20.71-6.06-42.58-3.92-63.86.62-6.1,1.43-12.19,2.36-18.26l-.3,2c3.39-22.1,8.23-43.95,11.12-66.13a271.51,271.51,0,0,0,.76-65.52c-1.31-11.54-3.2-23.5-8.84-33.82-1-1.81-3.71-2.11-5.47-2a19.23,19.23,0,0,0-8.56,2.9c-2.49,1.57-5.17,3.51-6.63,6.13-1,1.75-1.9,3.82-.84,5.77Z" transform="translate(-91.98 -187.33)"/><path class="cls-1" d="M92.88,337.62c21.54,3.28,43.36,1.23,65,.49,6.05-.2,12.11-.3,18.17-.15l-1.47,0a162,162,0,0,1,18.54,1.49c2,.27,4.17-.52,5.94-1.2a41.56,41.56,0,0,0,8.52-4.5c2-1.38,4.43-2.91,5.75-5,.47-.74,1.55-2.53-.13-2.77-21.26-3-42.75-1-64.09-.28-5.89.19-11.79.28-17.69.13l1.48,0a160.41,160.41,0,0,1-20-1.69c-1.94-.29-4.2.53-5.94,1.19a41.61,41.61,0,0,0-8.52,4.51c-2,1.38-4.44,2.91-5.75,5-.48.75-1.54,2.51.13,2.77Z" transform="translate(-91.98 -187.33)"/></svg>